{
	"asset": {
		"version": "2.0",
		"generator": "babylon.js glTF exporter for 3dsmax 2017 v20200123.4"
	},
	"scene": 0,
	"scenes": [{ "nodes": [0, 2, 3, 4, 10, 11, 12], "extensions": {} }],
	"nodes": [
		{
			"children": [1],
			"translation": [48.89538, -2.05639362, -8.687362],
			"rotation": [0.0, 0.0, 0.0, 1.0],
			"scale": [1.0, 1.0, 1.0],
			"name": "Group001"
		},
		{
			"translation": [4.76664734, 0.0, -10.3550806],
			"rotation": [0.0, 0.0, 0.0, 1.0],
			"scale": [0.6783916, 0.6783916, 0.6783916],
			"name": "Line001"
		},
		{
			"mesh": 0,
			"translation": [53.6620255, -2.05639362, -19.0424423],
			"rotation": [0.0, 0.0, 0.0, 1.0],
			"scale": [0.6783916, 0.6783916, 0.6783916],
			"name": "Plane001"
		},
		{
			"translation": [3.26602936, 16.263176, -47.659668],
			"rotation": [0.709854364, 0.0214995518, -0.02168803, 0.7036862],
			"scale": [0.9999993, 0.9999995, 0.9999997],
			"name": "Camera001.Target"
		},
		{
			"children": [5, 9],
			"mesh": 1,
			"translation": [2.23478174, -1.73784637, -8.956647],
			"rotation": [0.0, 0.0, 0.0, 1.0],
			"scale": [1.0, 1.0, 1.0],
			"name": "gear"
		},
		{
			"children": [6, 7, 8],
			"mesh": 2,
			"translation": [-6.22912931, 1.56871891, -5.80492],
			"rotation": [0.0, 0.0, 0.0, 1.0],
			"scale": [1.0, 1.0, 1.0],
			"name": "sculpture"
		},
		{
			"mesh": 3,
			"translation": [10.0691414, 7.400985, 0.05962944],
			"rotation": [2.58636668e-9, 0.0941080153, -7.759101e-9, 0.995562],
			"scale": [23.14844, 23.1484413, 23.1484413],
			"name": "sculpture01BLUE"
		},
		{
			"mesh": 4,
			"translation": [16.0353775, 35.3255768, 9.065855],
			"rotation": [2.58636668e-9, 0.0941080153, -7.759101e-9, 0.995562],
			"scale": [23.14844, 23.1484413, 23.1484413],
			"name": "sculpture01YELLOW"
		},
		{
			"mesh": 5,
			"translation": [2.56911659, 44.6342278, 5.75865364],
			"rotation": [2.58636668e-9, 0.0941080153, -7.759101e-9, 0.995562],
			"scale": [23.14844, 23.1484413, 23.1484413],
			"name": "sculpture01RED"
		},
		{
			"mesh": 6,
			"translation": [0.535172, -10.72757, 0.184896469],
			"rotation": [0.0, 0.0, 0.0, 1.0],
			"scale": [1.0, 1.0, 1.0],
			"name": "bottom"
		},
		{
			"mesh": 7,
			"translation": [1.54453182, -4.29946852, -8.666497],
			"rotation": [0.0, 0.0, 0.0, 1.0],
			"scale": [1.0, 1.0, 1.0],
			"name": "lid2"
		},
		{
			"translation": [0.0, 0.0, 0.0],
			"rotation": [0.0, 0.0, 0.0, 1.0],
			"scale": [1.0, 1.0, 1.0],
			"name": "Default light"
		},
		{
			"camera": 0,
			"translation": [12.9242611, 14.88248, 110.250992],
			"rotation": [0.00436151028, 0.0305382386, -0.000133262947, 0.9995241],
			"scale": [0.9999993, 0.999999464, 0.999999642],
			"name": "Camera001"
		}
	],
	"cameras": [
		{
			"perspective": { "yfov": 0.6024157, "zfar": 10000.0, "znear": 0.1 },
			"type": "perspective",
			"name": "Camera001"
		}
	],
	"meshes": [
		{
			"primitives": [
				{
					"attributes": { "POSITION": 1, "NORMAL": 2, "TEXCOORD_0": 3 },
					"indices": 0,
					"mode": 4,
					"material": 0
				}
			],
			"name": "Plane001"
		},
		{
			"primitives": [
				{
					"attributes": { "POSITION": 5, "NORMAL": 6, "TEXCOORD_0": 7 },
					"indices": 4,
					"mode": 4,
					"material": 1
				}
			],
			"name": "gear"
		},
		{
			"primitives": [
				{
					"attributes": { "POSITION": 9, "NORMAL": 10, "TEXCOORD_0": 11 },
					"indices": 8,
					"mode": 4,
					"material": 2
				}
			],
			"name": "sculpture"
		},
		{
			"primitives": [
				{
					"attributes": { "POSITION": 13, "NORMAL": 14, "TEXCOORD_0": 15 },
					"indices": 12,
					"mode": 4,
					"material": 3
				}
			],
			"name": "sculpture01BLUE"
		},
		{
			"primitives": [
				{
					"attributes": { "POSITION": 17, "NORMAL": 18, "TEXCOORD_0": 19 },
					"indices": 16,
					"mode": 4,
					"material": 4
				}
			],
			"name": "sculpture01YELLOW"
		},
		{
			"primitives": [
				{
					"attributes": { "POSITION": 21, "NORMAL": 22, "TEXCOORD_0": 23 },
					"indices": 20,
					"mode": 4,
					"material": 5
				}
			],
			"name": "sculpture01RED"
		},
		{
			"primitives": [
				{
					"attributes": { "POSITION": 25, "NORMAL": 26, "TEXCOORD_0": 27 },
					"indices": 24,
					"mode": 4,
					"material": 6
				}
			],
			"name": "bottom"
		},
		{
			"primitives": [
				{
					"attributes": { "POSITION": 29, "NORMAL": 30, "TEXCOORD_0": 31 },
					"indices": 28,
					"mode": 4,
					"material": 7
				}
			],
			"name": "lid2"
		}
	],
	"accessors": [
		{
			"bufferView": 0,
			"componentType": 5123,
			"count": 3996,
			"type": "SCALAR",
			"name": "accessorIndices"
		},
		{
			"bufferView": 1,
			"componentType": 5126,
			"count": 3996,
			"max": [240.629761, 2.77250218, 30.7666321],
			"min": [-91.2461853, -2.772502, -0.209999084],
			"type": "VEC3",
			"name": "accessorPositions"
		},
		{
			"bufferView": 1,
			"byteOffset": 47952,
			"componentType": 5126,
			"count": 3996,
			"type": "VEC3",
			"name": "accessorNormals"
		},
		{
			"bufferView": 2,
			"componentType": 5126,
			"count": 3996,
			"type": "VEC2",
			"name": "accessorUVs"
		},
		{
			"bufferView": 0,
			"byteOffset": 7992,
			"componentType": 5123,
			"count": 26004,
			"type": "SCALAR",
			"name": "accessorIndices"
		},
		{
			"bufferView": 1,
			"byteOffset": 95904,
			"componentType": 5126,
			"count": 26004,
			"max": [10.8154812, 2.26959467, 10.8241854],
			"min": [-10.8154812, -2.26959467, -10.8241854],
			"type": "VEC3",
			"name": "accessorPositions"
		},
		{
			"bufferView": 1,
			"byteOffset": 407952,
			"componentType": 5126,
			"count": 26004,
			"type": "VEC3",
			"name": "accessorNormals"
		},
		{
			"bufferView": 2,
			"byteOffset": 31968,
			"componentType": 5126,
			"count": 26004,
			"type": "VEC2",
			"name": "accessorUVs"
		},
		{
			"bufferView": 0,
			"byteOffset": 60000,
			"componentType": 5123,
			"count": 7590,
			"type": "SCALAR",
			"name": "accessorIndices"
		},
		{
			"bufferView": 1,
			"byteOffset": 720000,
			"componentType": 5126,
			"count": 7590,
			"max": [24.181818, 48.8142776, 30.5001869],
			"min": [-7.574556, -0.00143762992, -9.11258],
			"type": "VEC3",
			"name": "accessorPositions"
		},
		{
			"bufferView": 1,
			"byteOffset": 811080,
			"componentType": 5126,
			"count": 7590,
			"type": "VEC3",
			"name": "accessorNormals"
		},
		{
			"bufferView": 2,
			"byteOffset": 240000,
			"componentType": 5126,
			"count": 7590,
			"type": "VEC2",
			"name": "accessorUVs"
		},
		{
			"bufferView": 0,
			"byteOffset": 75180,
			"componentType": 5123,
			"count": 7668,
			"type": "SCALAR",
			"name": "accessorIndices"
		},
		{
			"bufferView": 1,
			"byteOffset": 902160,
			"componentType": 5126,
			"count": 7668,
			"max": [0.219557613, 0.198100388, 0.204036981],
			"min": [-0.195400655, -0.226432547, -0.211992174],
			"type": "VEC3",
			"name": "accessorPositions"
		},
		{
			"bufferView": 1,
			"byteOffset": 994176,
			"componentType": 5126,
			"count": 7668,
			"type": "VEC3",
			"name": "accessorNormals"
		},
		{
			"bufferView": 2,
			"byteOffset": 300720,
			"componentType": 5126,
			"count": 7668,
			"type": "VEC2",
			"name": "accessorUVs"
		},
		{
			"bufferView": 0,
			"byteOffset": 90516,
			"componentType": 5123,
			"count": 3420,
			"type": "SCALAR",
			"name": "accessorIndices"
		},
		{
			"bufferView": 1,
			"byteOffset": 1086192,
			"componentType": 5126,
			"count": 3420,
			"max": [0.219080746, 0.212391883, 0.1977613],
			"min": [-0.203427434, -0.2125926, -0.221337885],
			"type": "VEC3",
			"name": "accessorPositions"
		},
		{
			"bufferView": 1,
			"byteOffset": 1127232,
			"componentType": 5126,
			"count": 3420,
			"type": "VEC3",
			"name": "accessorNormals"
		},
		{
			"bufferView": 2,
			"byteOffset": 362064,
			"componentType": 5126,
			"count": 3420,
			"type": "VEC2",
			"name": "accessorUVs"
		},
		{
			"bufferView": 0,
			"byteOffset": 97356,
			"componentType": 5123,
			"count": 5832,
			"type": "SCALAR",
			"name": "accessorIndices"
		},
		{
			"bufferView": 1,
			"byteOffset": 1168272,
			"componentType": 5126,
			"count": 5832,
			"max": [0.197888449, 0.2043951, 0.206558675],
			"min": [-0.224562466, -0.228442356, -0.219747469],
			"type": "VEC3",
			"name": "accessorPositions"
		},
		{
			"bufferView": 1,
			"byteOffset": 1238256,
			"componentType": 5126,
			"count": 5832,
			"type": "VEC3",
			"name": "accessorNormals"
		},
		{
			"bufferView": 2,
			"byteOffset": 389424,
			"componentType": 5126,
			"count": 5832,
			"type": "VEC2",
			"name": "accessorUVs"
		},
		{
			"bufferView": 0,
			"byteOffset": 109020,
			"componentType": 5123,
			"count": 31098,
			"type": "SCALAR",
			"name": "accessorIndices"
		},
		{
			"bufferView": 1,
			"byteOffset": 1308240,
			"componentType": 5126,
			"count": 31098,
			"max": [14.2821293, 6.7359066, 15.0390549],
			"min": [-15.8731976, -6.7359066, -15.4944592],
			"type": "VEC3",
			"name": "accessorPositions"
		},
		{
			"bufferView": 1,
			"byteOffset": 1681416,
			"componentType": 5126,
			"count": 31098,
			"type": "VEC3",
			"name": "accessorNormals"
		},
		{
			"bufferView": 2,
			"byteOffset": 436080,
			"componentType": 5126,
			"count": 31098,
			"type": "VEC2",
			"name": "accessorUVs"
		},
		{
			"bufferView": 0,
			"byteOffset": 171216,
			"componentType": 5123,
			"count": 44178,
			"type": "SCALAR",
			"name": "accessorIndices"
		},
		{
			"bufferView": 1,
			"byteOffset": 2054592,
			"componentType": 5126,
			"count": 44178,
			"max": [15.12014, 1.48195648, 15.0743628],
			"min": [-15.1201324, -1.48195636, -15.0743628],
			"type": "VEC3",
			"name": "accessorPositions"
		},
		{
			"bufferView": 1,
			"byteOffset": 2584728,
			"componentType": 5126,
			"count": 44178,
			"type": "VEC3",
			"name": "accessorNormals"
		},
		{
			"bufferView": 2,
			"byteOffset": 684864,
			"componentType": 5126,
			"count": 44178,
			"type": "VEC2",
			"name": "accessorUVs"
		},
		{
			"bufferView": 3,
			"componentType": 5126,
			"count": 110,
			"max": [120.0],
			"min": [0.0],
			"type": "SCALAR",
			"name": "accessorAnimationInput"
		},
		{
			"bufferView": 4,
			"componentType": 5126,
			"count": 110,
			"type": "VEC4",
			"name": "accessorAnimationRotations"
		},
		{
			"bufferView": 3,
			"byteOffset": 440,
			"componentType": 5126,
			"count": 3601,
			"max": [120.0],
			"min": [0.0],
			"type": "SCALAR",
			"name": "accessorAnimationInput"
		},
		{
			"bufferView": 4,
			"byteOffset": 1760,
			"componentType": 5126,
			"count": 3601,
			"type": "VEC4",
			"name": "accessorAnimationRotations"
		},
		{
			"bufferView": 3,
			"byteOffset": 14844,
			"componentType": 5126,
			"count": 3601,
			"max": [120.0],
			"min": [0.0],
			"type": "SCALAR",
			"name": "accessorAnimationInput"
		},
		{
			"bufferView": 4,
			"byteOffset": 59376,
			"componentType": 5126,
			"count": 3601,
			"type": "VEC4",
			"name": "accessorAnimationRotations"
		},
		{
			"bufferView": 3,
			"byteOffset": 29248,
			"componentType": 5126,
			"count": 3601,
			"max": [120.0],
			"min": [0.0],
			"type": "SCALAR",
			"name": "accessorAnimationInput"
		},
		{
			"bufferView": 4,
			"byteOffset": 116992,
			"componentType": 5126,
			"count": 3601,
			"type": "VEC4",
			"name": "accessorAnimationRotations"
		}
	],
	"bufferViews": [
		{ "buffer": 0, "byteLength": 259572, "name": "bufferViewScalar" },
		{
			"buffer": 0,
			"byteOffset": 259572,
			"byteLength": 3114864,
			"byteStride": 12,
			"name": "bufferViewFloatVec3"
		},
		{
			"buffer": 0,
			"byteOffset": 3374436,
			"byteLength": 1038288,
			"byteStride": 8,
			"name": "bufferViewFloatVec2"
		},
		{
			"buffer": 0,
			"byteOffset": 4412724,
			"byteLength": 43652,
			"name": "bufferViewAnimationFloatScalar"
		},
		{
			"buffer": 0,
			"byteOffset": 4456376,
			"byteLength": 174608,
			"name": "bufferViewAnimationFloatVec4"
		}
	],
	"buffers": [{ "uri": "Sculpture01MovingRock.bin", "byteLength": 4630984 }],
	"materials": [
		{
			"pbrMetallicRoughness": {
				"baseColorFactor": [0.5882353, 0.5882353, 0.5882353, 1.0],
				"metallicFactor": 0.0,
				"roughnessFactor": 0.450053632
			},
			"emissiveFactor": [0.0, 0.0, 0.0],
			"alphaMode": "OPAQUE",
			"name": "02 - Default"
		},
		{
			"pbrMetallicRoughness": {
				"baseColorFactor": [0.5, 0.5, 0.5, 1.0],
				"baseColorTexture": { "index": 1, "texCoord": 0 },
				"metallicFactor": 1.0,
				"roughnessFactor": 1.0,
				"metallicRoughnessTexture": { "index": 2, "texCoord": 0 }
			},
			"normalTexture": { "index": 0, "texCoord": 0 },
			"emissiveFactor": [0.0, 0.0, 0.0],
			"alphaMode": "OPAQUE",
			"name": "defaultMat"
		},
		{
			"pbrMetallicRoughness": {
				"baseColorFactor": [0.5, 0.5, 0.5, 1.0],
				"baseColorTexture": { "index": 4, "texCoord": 0 },
				"metallicFactor": 1.0,
				"roughnessFactor": 1.0,
				"metallicRoughnessTexture": { "index": 5, "texCoord": 0 }
			},
			"normalTexture": { "index": 3, "texCoord": 0 },
			"emissiveFactor": [0.0, 0.0, 0.0],
			"alphaMode": "OPAQUE",
			"name": "sebsculpture01"
		},
		{
			"pbrMetallicRoughness": {
				"baseColorFactor": [0.0, 0.183745489, 0.6007067, 1.0],
				"metallicFactor": 1.0,
				"roughnessFactor": 1.0,
				"metallicRoughnessTexture": { "index": 7, "texCoord": 0 }
			},
			"normalTexture": { "index": 6, "texCoord": 0 },
			"emissiveFactor": [0.0, 0.0, 0.0],
			"alphaMode": "OPAQUE",
			"name": "blue"
		},
		{
			"pbrMetallicRoughness": {
				"baseColorFactor": [0.964705944, 1.0, 0.0, 1.0],
				"metallicFactor": 1.0,
				"roughnessFactor": 1.0,
				"metallicRoughnessTexture": { "index": 7, "texCoord": 0 }
			},
			"normalTexture": { "index": 6, "texCoord": 0 },
			"emissiveFactor": [0.0, 0.0, 0.0],
			"alphaMode": "OPAQUE",
			"name": "yellow"
		},
		{
			"pbrMetallicRoughness": {
				"baseColorFactor": [1.0, 0.0, 0.0, 1.0],
				"metallicFactor": 1.0,
				"roughnessFactor": 1.0,
				"metallicRoughnessTexture": { "index": 7, "texCoord": 0 }
			},
			"normalTexture": { "index": 6, "texCoord": 0 },
			"emissiveFactor": [0.0, 0.0, 0.0],
			"alphaMode": "OPAQUE",
			"name": "red"
		},
		{
			"pbrMetallicRoughness": {
				"baseColorFactor": [0.5, 0.5, 0.5, 1.0],
				"baseColorTexture": { "index": 9, "texCoord": 0 },
				"metallicFactor": 1.0,
				"roughnessFactor": 1.0,
				"metallicRoughnessTexture": { "index": 10, "texCoord": 0 }
			},
			"normalTexture": { "index": 8, "texCoord": 0 },
			"emissiveFactor": [0.0, 0.0, 0.0],
			"alphaMode": "OPAQUE",
			"name": "BOTTOMROCK"
		},
		{
			"pbrMetallicRoughness": {
				"baseColorFactor": [0.5, 0.5, 0.5, 1.0],
				"baseColorTexture": { "index": 12, "texCoord": 0 },
				"metallicFactor": 1.0,
				"roughnessFactor": 1.0,
				"metallicRoughnessTexture": { "index": 13, "texCoord": 0 }
			},
			"normalTexture": { "index": 11, "texCoord": 0 },
			"emissiveFactor": [0.0, 0.0, 0.0],
			"alphaMode": "OPAQUE",
			"name": "LID"
		}
	],
	"textures": [
		{ "sampler": 0, "source": 0, "name": "gear_defaultMat_Normal.jpg" },
		{ "sampler": 0, "source": 1, "name": "both2_defaultMat_BaseColor.jpg" },
		{
			"sampler": 0,
			"source": 2,
			"name": "gear_defaultMat_Roughnessgear_defaultMat_Metallic.jpg"
		},
		{
			"sampler": 0,
			"source": 3,
			"name": "sculpture01_optimized_defaultMat_Normal.jpg"
		},
		{
			"sampler": 0,
			"source": 4,
			"name": "sculpture01_optimized_defaultMat_BaseColor.jpg"
		},
		{
			"sampler": 0,
			"source": 5,
			"name": "sculpture01_optimized_defaultMat_Roughnesssculpture01_optimized_defaultMat_Metallic.jpg"
		},
		{ "sampler": 0, "source": 6, "name": "ball_defaultMat_Normal.jpg" },
		{
			"sampler": 0,
			"source": 7,
			"name": "ball_defaultMat_Roughnessball_defaultMat_Metallic.jpg"
		},
		{ "sampler": 0, "source": 8, "name": "double_BOTTOMROCK_Normal.jpg" },
		{ "sampler": 0, "source": 9, "name": "double_BOTTOMROCK_BaseColor.jpg" },
		{
			"sampler": 0,
			"source": 10,
			"name": "double_BOTTOMROCK_Roughnessdouble_BOTTOMROCK_Metallic.jpg"
		},
		{ "sampler": 0, "source": 11, "name": "double_LID_Normal.jpg" },
		{ "sampler": 0, "source": 12, "name": "double_LID_BaseColor.jpg" },
		{
			"sampler": 0,
			"source": 13,
			"name": "double_LID_Roughnessdouble_LID_Metallic.jpg"
		}
	],
	"images": [
		{ "uri": "./gear_defaultMat_Normal.jpg" },
		{ "uri": "./both2_defaultMat_BaseColor.jpg" },
		{ "uri": "./gear_defaultMat_Roughnessgear_defaultMat_Metallic.jpg" },
		{ "uri": "./sculpture01_optimized_defaultMat_Normal.jpg" },
		{ "uri": "./sculpture01_optimized_defaultMat_BaseColor.jpg" },
		{
			"uri": "./sculpture01_optimized_defaultMat_Roughnesssculpture01_optimized_defaultMat_Metallic.jpg"
		},
		{ "uri": "./ball_defaultMat_Normal.jpg" },
		{ "uri": "./ball_defaultMat_Roughnessball_defaultMat_Metallic.jpg" },
		{ "uri": "./double_BOTTOMROCK_Normal.jpg" },
		{ "uri": "./double_BOTTOMROCK_BaseColor.jpg" },
		{ "uri": "./double_BOTTOMROCK_Roughnessdouble_BOTTOMROCK_Metallic.jpg" },
		{ "uri": "./double_LID_Normal.jpg" },
		{ "uri": "./double_LID_BaseColor.jpg" },
		{ "uri": "./double_LID_Roughnessdouble_LID_Metallic.jpg" }
	],
	"samplers": [
		{ "magFilter": 9729, "minFilter": 9987, "wrapS": 10497, "wrapT": 10497 }
	],
	"animations": [
		{
			"channels": [
				{ "sampler": 0, "target": { "node": 4, "path": "rotation" } },
				{ "sampler": 1, "target": { "node": 6, "path": "rotation" } },
				{ "sampler": 2, "target": { "node": 7, "path": "rotation" } },
				{ "sampler": 3, "target": { "node": 8, "path": "rotation" } }
			],
			"samplers": [
				{ "input": 32, "interpolation": "LINEAR", "output": 33 },
				{ "input": 34, "interpolation": "LINEAR", "output": 35 },
				{ "input": 36, "interpolation": "LINEAR", "output": 37 },
				{ "input": 38, "interpolation": "LINEAR", "output": 39 }
			],
			"name": "All Animations"
		}
	]
}
