<svg version="1" xmlns="http://www.w3.org/2000/svg" width="933.333" height="933.333" viewBox="0 0 700.000000 700.000000"><path d="M148.7 82.6c-.2.1-49 1.4-57.9 1.5-2.8 0-3.6 2.8-3.4 12.5.1 9.8 1.2 12.4 5 12.4 3.6 0 11.8 4.4 18.1 9.7 8.7 7.2 20 19.3 21.1 22.5.3 1 .9 1.8 1.3 1.8.3 0 1.5 1.4 2.5 3.2 1.9 3 1.9 9.6 1.9 206.9v203.7l-6.3 8.3c-14.9 19.6-22 25.9-33.7 29.5-4.5 1.4-8.6 3-9 3.7-1.1 1.8-1.1 18.9 0 21.4.6 1.3 2.1 2.3 4.1 2.6 3.7.6 229.8.5 233.8-.1l2.8-.4v-10.5c0-5.7-.4-11.3-1-12.3-1.1-2.1-4.6-2.8-18-3.6-15.9-.9-21.4-3.1-30.7-12.1-3.2-3.2-8.6-9.4-11.9-13.8-3.2-4.4-6.5-8.6-7.2-9.3-3.5-3.8-3.5-4.2-3.3-91.6.1-47.3.4-86.2.6-86.5.4-.7 37.3-.4 46.6.3 3.7.3 8.3 1.3 10.3 2.1 4.4 1.9 17.9 15.1 26.4 26 3.4 4.4 6.9 8.9 7.8 10 .8 1.1 4.6 6.9 8.3 13 30 48.9 26.7 43.3 36.9 61.4 7 12.4 22.3 38 25.3 42.3 1.1 1.4 1.9 2.9 1.9 3.2 0 .4.5 1.2 1 1.9.6.7 5.8 8.6 11.6 17.6 26 40.6 41.6 58 54.6 60.7 9.6 1.9 20.5 2.3 67.8 2 29.4-.2 54.4-.5 55.5-.8 2.4-.6 3.3-3.8 2.9-10.2-.5-8.1-2.3-11.6-10.4-20.2-6.9-7.3-24.5-29.9-29.6-37.9-1-1.7-2.1-3.2-2.5-3.5-.6-.5-28.6-41.6-37-54.5-17.1-26-32.5-49.6-34.4-52.7-.5-1-10-15.9-21-33.2-11-17.3-20.4-32.2-21-33.1-.9-1.5-7-3.2-17.8-5-1.8-.3-6.3-1.2-10.2-2-3.8-.8-8.1-1.6-9.5-1.8-3.2-.6-13.3-2.4-21.2-3.8-6.9-1.2-11.7-3.2-10.1-4.2.6-.4 2.8-.9 4.9-1.1 17.3-1.7 55.6-17.7 77.4-32.1 4.1-2.7 13.2-10.6 20.1-17.5 20.3-20.3 32.2-40.4 35.7-60.8 1.2-7 1.3-40.2.1-47.2-3-17.9-8.8-32.6-18.6-47.3-5.1-7.5-20.1-23.4-26.8-28.3-2.2-1.6-4.2-3.1-4.5-3.4-4.4-4.6-29.8-17.9-43.9-23-12.8-4.6-32.3-9.4-47.1-11.5-10.3-1.4-17.4-2.6-18.1-3-1.9-1.3-33.4-1.7-122.7-1.9-53.5-.1-97.4-.1-97.5 0zm179.8 34.8c8.5.8 10.3 1.2 17.2 4.1 32.4 13.1 53.7 38.1 61.8 72.3 3.3 13.9 3.9 19.9 4 37.7 0 13.3-1 28.9-2 30.4-.2.4-.6 2.3-.9 4.3-1.4 9.1-7.4 23.2-13.8 32.5-10.4 15.3-31.1 30.9-49.3 37.2-17.2 5.9-33.1 7.7-66 7.4-11-.1-20.6-.2-21.3-.2-1-.1-1.2-18.6-1.1-96.9.1-92.2.6-108.8 3.1-113.6 4.3-8.3 12.3-14.1 21.5-15.5 5.4-.8 37.7-.6 46.8.3z"/></svg>