<svg width="63" height="105" viewBox="0 0 63 105" fill="none" xmlns="http://www.w3.org/2000/svg">
<path d="M18.1828 30.2725H31.0518C34.182 30.2725 38.3107 30.2725 40.4426 31.5671C42.7807 32.9583 44.6164 35.4896 44.6164 38.9742C44.6164 42.7485 42.6325 45.5826 39.3477 46.9223V47.0253C43.7211 47.9206 46.1042 51.1991 46.1042 55.5724C46.1042 60.7896 42.3749 65.762 35.3221 65.762H18.1828V30.2725ZM22.904 45.531H32.3528C37.7181 45.531 39.908 43.5923 39.908 39.863C39.908 34.9421 36.4299 34.2465 32.3528 34.2465H22.904V45.5246V45.531ZM22.904 61.7815H34.736C38.8066 61.7815 41.3959 59.2953 41.3959 55.4243C41.3959 50.7997 37.6666 49.5115 33.6925 49.5115H22.9104V61.7879L22.904 61.7815Z" fill="#666666"/>
<path d="M58.181 48.0237C58.181 62.928 46.0978 75.0112 31.187 75.0112C16.2763 75.0112 4.19952 62.9344 4.19952 48.0237C4.19952 33.1129 16.2827 21.0426 31.187 21.0426C46.0913 21.0426 58.181 33.1258 58.181 48.0301V48.0237ZM31.187 16.9204C14.0219 16.9204 0.103088 30.8393 0.103088 48.0108C0.103088 65.1823 14.0219 79.0947 31.187 79.0947C48.3521 79.0947 62.2774 65.1759 62.2774 48.0108C62.2774 30.8457 48.3585 16.9204 31.187 16.9204Z" fill="#666666"/>
<path d="M62.2129 85.6514H0.16745V89.7285H62.2129V85.6514Z" fill="#666666"/>
<path d="M60.0231 81.1624C60.1004 81.1624 60.1712 81.1625 60.2421 81.156C60.3065 81.156 60.3709 81.1367 60.4224 81.1174C60.4804 81.0916 60.519 81.053 60.5512 81.0079C60.5834 80.9563 60.5963 80.8919 60.5963 80.8082C60.5963 80.7374 60.5834 80.6729 60.5577 80.6343C60.5319 80.5892 60.4933 80.557 60.4482 80.5377C60.4031 80.5119 60.358 80.499 60.2936 80.4862C60.2356 80.4862 60.1841 80.4797 60.1261 80.4797H59.6817V81.1689H60.0295L60.0231 81.1624ZM60.1712 80.2028C60.4288 80.2028 60.6156 80.2543 60.738 80.3573C60.8604 80.4604 60.9248 80.615 60.9248 80.8275C60.9248 81.0272 60.8668 81.1625 60.7638 81.2591C60.6543 81.3492 60.519 81.4008 60.3516 81.4201L60.9699 82.3733H60.6156L60.0231 81.4394H59.6688V82.3733H59.3274V80.2092H60.1648L60.1712 80.2028ZM58.6511 81.9032C58.722 82.0964 58.8315 82.2703 58.9668 82.412C59.102 82.5537 59.263 82.6632 59.4498 82.7469C59.6302 82.8242 59.8363 82.8629 60.0488 82.8629C60.2614 82.8629 60.4675 82.8242 60.6478 82.7469C60.8346 82.6632 60.9892 82.5537 61.1309 82.412C61.2597 82.2703 61.3692 82.1028 61.4465 81.9032C61.5238 81.7099 61.5689 81.5038 61.5689 81.2784C61.5689 81.053 61.5302 80.8468 61.4465 80.6536C61.3692 80.4604 61.2597 80.2929 61.1309 80.1512C60.9892 80.0095 60.8282 79.9 60.6478 79.8227C60.4675 79.7454 60.2678 79.7004 60.0488 79.7004C59.8298 79.7004 59.6302 79.7454 59.4498 79.8227C59.263 79.9065 59.102 80.016 58.9668 80.1512C58.8251 80.2929 58.722 80.4604 58.6511 80.6536C58.5739 80.8468 58.5352 81.0465 58.5352 81.2784C58.5352 81.5103 58.5739 81.7099 58.6511 81.9032ZM58.3484 80.5441C58.445 80.3187 58.5803 80.1319 58.7478 79.9644C58.9152 79.797 59.1149 79.6746 59.3403 79.578C59.5658 79.4814 59.8041 79.4363 60.0553 79.4363C60.3065 79.4363 60.5512 79.4814 60.7767 79.578C60.9956 79.6746 61.1889 79.797 61.3563 79.9644C61.5238 80.1319 61.6591 80.3251 61.7557 80.5441C61.8587 80.7696 61.9038 81.0143 61.9038 81.2784C61.9038 81.5425 61.8587 81.7872 61.7557 82.0127C61.6591 82.2445 61.5238 82.4378 61.3563 82.6052C61.1889 82.7791 60.9956 82.9015 60.7767 82.9981C60.5512 83.0883 60.3129 83.1334 60.0553 83.1334C59.7976 83.1334 59.5658 83.0883 59.3403 82.9981C59.1149 82.9015 58.9152 82.7791 58.7478 82.6052C58.5803 82.4378 58.445 82.2445 58.3484 82.0127C58.2454 81.7872 58.2067 81.5425 58.2067 81.2784C58.2067 81.0143 58.2454 80.7696 58.3484 80.5441Z" fill="#666666"/>
<path d="M7.68403 3.25267C7.53589 3.01436 7.35554 2.80825 7.13655 2.63434C6.91756 2.45399 6.66636 2.31874 6.3894 2.21568C6.11244 2.11907 5.8226 2.06754 5.51988 2.06754C4.96596 2.06754 4.49577 2.17703 4.10287 2.38959C3.71642 2.60214 3.40081 2.89198 3.1625 3.25267C2.92418 3.61336 2.74384 4.02558 2.63434 4.48933C2.52485 4.95308 2.46688 5.42971 2.46688 5.91922C2.46688 6.40873 2.5184 6.84671 2.63434 7.29113C2.74384 7.73556 2.91774 8.1349 3.1625 8.49559C3.40081 8.84984 3.71642 9.13968 4.10287 9.35223C4.48933 9.56478 4.95952 9.67428 5.51988 9.67428C6.27347 9.67428 6.86603 9.44241 7.28469 8.9851C7.7098 8.52135 7.96743 7.9159 8.06405 7.16232H10.4536C10.3892 7.86438 10.2282 8.49559 9.96412 9.06239C9.70004 9.62919 9.35867 10.1123 8.92713 10.5052C8.49559 10.9045 7.9932 11.2072 7.41995 11.4198C6.84671 11.6259 6.20906 11.7354 5.51988 11.7354C4.66323 11.7354 3.89032 11.5872 3.20114 11.2845C2.51196 10.9882 1.93872 10.576 1.46209 10.0479C0.991904 9.52614 0.631211 8.90781 0.380015 8.19931C0.128819 7.49724 0 6.73721 0 5.91922C0 5.10122 0.122378 4.30254 0.380015 3.5876C0.631211 2.87266 0.991904 2.24144 1.46209 1.71329C1.93228 1.17869 2.51196 0.76003 3.20114 0.457306C3.88388 0.154582 4.65679 0 5.51988 0C6.13821 0 6.72433 0.090173 7.27181 0.264078C7.81929 0.444424 8.31524 0.702062 8.74679 1.04343C9.17833 1.3848 9.53902 1.80346 9.82242 2.30585C10.1058 2.80825 10.2862 3.38793 10.357 4.03202H7.96743C7.92879 3.74862 7.83217 3.49098 7.68403 3.25267Z" fill="#666666"/>
<path d="M13.6676 9.53253C14.0026 9.85458 14.4856 10.022 15.1104 10.022C15.5613 10.022 15.9477 9.91254 16.2762 9.68711C16.5983 9.46168 16.7979 9.22336 16.8752 8.97217H18.8397C18.5241 9.94475 18.041 10.6468 17.3905 11.0655C16.74 11.4841 15.9542 11.6967 15.0331 11.6967C14.3955 11.6967 13.8158 11.5936 13.307 11.3875C12.7917 11.1814 12.3601 10.8916 11.9994 10.518C11.6452 10.1444 11.3682 9.69355 11.175 9.1654C10.9818 8.64368 10.8852 8.064 10.8852 7.43923C10.8852 6.81446 10.9818 6.26698 11.1814 5.74526C11.3811 5.22355 11.6645 4.76624 12.0316 4.38622C12.3988 4.00621 12.8368 3.70349 13.3456 3.48449C13.8544 3.2655 14.4148 3.15601 15.0331 3.15601C15.7223 3.15601 16.3278 3.29127 16.843 3.55534C17.3583 3.82586 17.777 4.18011 18.1054 4.63098C18.4339 5.08184 18.6722 5.59712 18.8204 6.17036C18.9685 6.74361 19.0201 7.34905 18.975 7.98026H13.1137C13.1459 8.70165 13.3263 9.2298 13.6612 9.55185L13.6676 9.53253ZM16.1925 5.25575C15.922 4.96591 15.5162 4.81777 14.9752 4.81777C14.6209 4.81777 14.3246 4.87573 14.0863 4.99811C13.848 5.12049 13.6612 5.26863 13.5195 5.44254C13.3778 5.62288 13.2812 5.80967 13.2232 6.00934C13.1653 6.20901 13.133 6.38291 13.1202 6.54394H16.7529C16.6498 5.97713 16.463 5.54559 16.1925 5.25575Z" fill="#666666"/>
<path d="M22.1053 3.35571V4.86289H22.1375C22.2405 4.61169 22.3822 4.37982 22.5626 4.16083C22.7429 3.94828 22.9426 3.76149 23.1745 3.61335C23.4063 3.46521 23.6511 3.34283 23.9152 3.2591C24.1793 3.17536 24.4498 3.13672 24.7332 3.13672C24.8813 3.13672 25.0423 3.16248 25.2227 3.21401V5.28799C25.1196 5.26867 24.9908 5.24934 24.8427 5.23646C24.6945 5.22358 24.5528 5.2107 24.4176 5.2107C24.0118 5.2107 23.664 5.28155 23.3806 5.41681C23.0972 5.55207 22.8717 5.73886 22.6978 5.97717C22.5239 6.21548 22.4016 6.486 22.3307 6.80161C22.2599 7.11721 22.2212 7.45858 22.2212 7.82572V11.4906H19.9926V3.35571H22.1117H22.1053Z" fill="#666666"/>
<path d="M31.1934 3.35581V4.85011H29.5574V8.87569C29.5574 9.25571 29.6218 9.50691 29.7442 9.62928C29.8666 9.75166 30.1242 9.81607 30.4978 9.81607C30.6266 9.81607 30.7425 9.81607 30.8585 9.80319C30.9744 9.79031 31.0839 9.77742 31.187 9.7581V11.4843C31.0002 11.5165 30.7876 11.5358 30.5558 11.5487C30.3239 11.5616 30.0985 11.568 29.8795 11.568C29.5317 11.568 29.2032 11.5422 28.9004 11.4972C28.5913 11.4521 28.3208 11.3619 28.0824 11.2202C27.8441 11.0849 27.6638 10.8917 27.5221 10.6405C27.3868 10.3893 27.316 10.0608 27.316 9.64861V4.85011H25.9634V3.35581H27.316V0.921143H29.5445V3.35581H31.1805H31.1934Z" fill="#666666"/>
<path d="M32.4881 2.09992V0.257812H34.7166V2.09992H32.4881ZM34.7166 3.3559V11.4779H32.4881V3.3559H34.7166Z" fill="#666666"/>
<path d="M35.6055 4.8502V3.3559H36.9387V2.72469C36.9387 2.0033 37.1642 1.41074 37.615 0.946992C38.0659 0.483245 38.7486 0.257812 39.6568 0.257812C39.8565 0.257812 40.0562 0.264253 40.2558 0.283576C40.4555 0.296458 40.6487 0.315781 40.8355 0.322222V1.99042C40.5714 1.95822 40.3009 1.94534 40.0175 1.94534C39.7148 1.94534 39.4958 2.01619 39.367 2.15789C39.2382 2.29959 39.1737 2.5379 39.1737 2.87283V3.36234H40.7131V4.85664H39.1737V11.4908H36.9387V4.8502H35.6055Z" fill="#666666"/>
<path d="M42.2267 2.09992V0.257812H44.4553V2.09992H42.2267ZM44.4553 3.3559V11.4779H42.2267V3.3559H44.4553Z" fill="#666666"/>
<path d="M47.9785 9.53253C48.3135 9.85458 48.7965 10.022 49.4213 10.022C49.8722 10.022 50.2586 9.91254 50.5871 9.68711C50.9092 9.46168 51.1088 9.22336 51.1861 8.97217H53.1506C52.835 9.94475 52.3519 10.6468 51.7078 11.0655C51.0573 11.4841 50.2715 11.6967 49.3504 11.6967C48.7128 11.6967 48.1331 11.5936 47.6243 11.3875C47.109 11.1814 46.6775 10.8916 46.3168 10.518C45.9625 10.1444 45.6856 9.69355 45.4923 9.1654C45.2991 8.64368 45.2025 8.064 45.2025 7.43923C45.2025 6.81446 45.3055 6.26698 45.4988 5.74526C45.6984 5.22355 45.9818 4.76624 46.349 4.38622C46.7161 4.00621 47.1541 3.70349 47.6629 3.48449C48.1718 3.2655 48.7321 3.15601 49.3504 3.15601C50.0396 3.15601 50.6451 3.29127 51.1603 3.55534C51.6756 3.82586 52.0943 4.18011 52.4228 4.63098C52.7513 5.08184 52.9896 5.59712 53.1377 6.17036C53.2859 6.74361 53.3374 7.34905 53.2987 7.98026H47.4375C47.4697 8.70165 47.65 9.2298 47.985 9.55185L47.9785 9.53253ZM50.5034 5.25575C50.2393 4.96591 49.8271 4.81777 49.286 4.81777C48.9318 4.81777 48.6355 4.87573 48.3972 4.99811C48.1589 5.12049 47.9721 5.26863 47.8304 5.44254C47.6887 5.62288 47.5921 5.80967 47.5341 6.00934C47.4761 6.20901 47.4439 6.38291 47.431 6.54394H51.0573C50.9542 5.97713 50.7675 5.54559 50.4969 5.25575H50.5034Z" fill="#666666"/>
<path d="M60.0617 10.4409C59.7976 10.8789 59.4562 11.201 59.0311 11.3942C58.606 11.5874 58.1294 11.684 57.5948 11.684C56.9894 11.684 56.4548 11.5681 55.991 11.3298C55.5273 11.0915 55.1473 10.7759 54.851 10.3701C54.5547 9.9643 54.3293 9.50055 54.1747 8.97883C54.0201 8.45712 53.9492 7.90964 53.9492 7.34284C53.9492 6.77604 54.0265 6.27364 54.1747 5.76481C54.3228 5.25598 54.5547 4.81155 54.851 4.41865C55.1473 4.0322 55.5273 3.71659 55.9717 3.48472C56.4226 3.2464 56.9443 3.13047 57.5433 3.13047C58.0264 3.13047 58.4837 3.23352 58.9152 3.43963C59.3532 3.64574 59.6946 3.94203 59.9458 4.34136H59.978V0.257812H62.2065V11.4779H60.0875V10.4409H60.0553H60.0617ZM59.9651 6.42823C59.9007 6.11906 59.7976 5.84854 59.643 5.61023C59.4884 5.37191 59.2952 5.18513 59.0505 5.03698C58.8122 4.88884 58.503 4.81799 58.1423 4.81799C57.7816 4.81799 57.466 4.88884 57.2148 5.03698C56.9636 5.18513 56.7639 5.37835 56.6094 5.61667C56.4612 5.85498 56.3517 6.13194 56.2809 6.44111C56.21 6.75027 56.1778 7.07232 56.1778 7.40725C56.1778 7.72285 56.2165 8.03846 56.2873 8.34762C56.3582 8.66323 56.4805 8.94019 56.6416 9.19138C56.8026 9.43614 57.0087 9.63581 57.2534 9.79039C57.4982 9.94497 57.7945 10.0158 58.1423 10.0158C58.5094 10.0158 58.8121 9.94497 59.0633 9.79683C59.3081 9.64869 59.5078 9.45546 59.6559 9.20427C59.8041 8.95951 59.9071 8.67611 59.9715 8.36695C60.0359 8.05134 60.0681 7.72929 60.0681 7.39436C60.0681 7.05944 60.0359 6.73739 59.9715 6.42823H59.9651Z" fill="#666666"/>
<path d="M5.61005 97.7414C5.50056 96.9556 4.74697 96.3566 3.88388 96.3566C2.32518 96.3566 1.73905 97.6835 1.73905 99.0683C1.73905 100.453 2.32518 101.709 3.88388 101.709C4.94664 101.709 5.54564 100.981 5.67446 99.9378H7.36199C7.18164 101.909 5.8226 103.171 3.88388 103.171C1.43633 103.171 0 101.342 0 99.0683C0 96.7946 1.43633 94.8945 3.88388 94.8945C5.62293 94.8945 7.07858 95.9122 7.29113 97.7414H5.61005Z" fill="#666666"/>
<path d="M10.9882 97.1101C12.7917 97.1101 13.951 98.3017 13.951 100.131C13.951 101.96 12.7917 103.139 10.9882 103.139C9.18476 103.139 8.03183 101.941 8.03183 100.131C8.03183 98.321 9.1912 97.1101 10.9882 97.1101ZM10.9882 101.954C12.0639 101.954 12.3795 101.033 12.3795 100.131C12.3795 99.2292 12.0574 98.2952 10.9882 98.2952C9.91902 98.2952 9.60342 99.2163 9.60342 100.131C9.60342 101.046 9.92546 101.954 10.9882 101.954Z" fill="#666666"/>
<path d="M14.9237 97.2515H16.418V98.3143H16.4437C16.7271 97.5929 17.5065 97.0969 18.273 97.0969C18.3825 97.0969 18.5177 97.1162 18.6143 97.1485V98.6105C18.4662 98.5783 18.2343 98.559 18.0475 98.559C16.8946 98.559 16.4953 99.3899 16.4953 100.395V102.971H14.9237V97.2515Z" fill="#666666"/>
<path d="M19.2198 97.2647H20.7141V97.9925H20.7334C21.107 97.3871 21.7253 97.1101 22.4338 97.1101C24.2308 97.1101 25.0359 98.5593 25.0359 100.182C25.0359 101.709 24.1986 103.139 22.524 103.139C21.8412 103.139 21.1842 102.843 20.8107 102.276H20.7849V105H19.2133V97.2647H19.2198ZM23.4708 100.144C23.4708 99.2356 23.1036 98.2952 22.0989 98.2952C21.0941 98.2952 20.7398 99.2163 20.7398 100.144C20.7398 101.071 21.0941 101.96 22.1117 101.96C23.1294 101.96 23.4708 101.078 23.4708 100.144Z" fill="#666666"/>
<path d="M28.4882 97.1101C30.2917 97.1101 31.4575 98.3017 31.4575 100.131C31.4575 101.96 30.2917 103.139 28.4882 103.139C26.6848 103.139 25.5383 101.941 25.5383 100.131C25.5383 98.321 26.6977 97.1101 28.4882 97.1101ZM28.4882 101.954C29.5639 101.954 29.8859 101.033 29.8859 100.131C29.8859 99.2292 29.5639 98.2952 28.4882 98.2952C27.4126 98.2952 27.1034 99.2163 27.1034 100.131C27.1034 101.046 27.4255 101.954 28.4882 101.954Z" fill="#666666"/>
<path d="M32.4237 97.2515H33.918V98.3143H33.9437C34.2271 97.5929 35.0065 97.0969 35.7665 97.0969C35.876 97.0969 36.0113 97.1162 36.1079 97.1485V98.6105C35.9662 98.5783 35.7343 98.559 35.5411 98.559C34.3882 98.559 33.9888 99.3899 33.9888 100.395V102.971H32.4172V97.2515H32.4237Z" fill="#666666"/>
<path d="M36.5716 99.0231C36.6618 97.5481 37.9757 97.1101 39.2639 97.1101C40.404 97.1101 41.7759 97.3613 41.7759 98.7332V101.709C41.7759 102.231 41.8274 102.746 41.9756 102.984H40.3782C40.3267 102.804 40.2751 102.617 40.2687 102.43C39.7728 102.952 39.0449 103.139 38.3429 103.139C37.2608 103.139 36.3977 102.598 36.3977 101.426C36.3977 100.131 37.3703 99.8217 38.3429 99.6865C39.309 99.5448 40.2043 99.577 40.2043 98.9329C40.2043 98.2888 39.7341 98.16 39.1866 98.16C38.5876 98.16 38.2012 98.4047 38.1432 99.0231H36.5716ZM40.2043 100.182C39.9338 100.414 39.3863 100.427 38.8968 100.517C38.4073 100.614 37.9693 100.781 37.9693 101.361C37.9693 101.941 38.4202 102.089 38.9354 102.089C40.1592 102.089 40.2107 101.116 40.2107 100.775V100.189L40.2043 100.182Z" fill="#666666"/>
<path d="M44.9513 97.2645H46.1042V98.3143H44.9513V101.148C44.9513 101.683 45.0865 101.812 45.6147 101.812C45.7821 101.812 45.9367 101.799 46.1042 101.767V102.997C45.8401 103.042 45.4923 103.055 45.1831 103.055C44.2234 103.055 43.3797 102.829 43.3797 101.696V98.3208H42.4264V97.2709H43.3797V95.5576H44.9513V97.2709V97.2645Z" fill="#666666"/>
<path d="M48.8545 96.3823H47.2829V95.0876H48.8545V96.3823ZM47.2829 97.2711H48.8545V102.991H47.2829V97.2711Z" fill="#666666"/>
<path d="M52.8672 97.1101C54.6706 97.1101 55.8365 98.3017 55.8365 100.131C55.8365 101.96 54.6706 103.139 52.8672 103.139C51.0637 103.139 49.9172 101.941 49.9172 100.131C49.9172 98.321 51.0766 97.1101 52.8672 97.1101ZM52.8672 101.954C53.9428 101.954 54.2649 101.033 54.2649 100.131C54.2649 99.2292 53.9428 98.2952 52.8672 98.2952C51.7915 98.2952 51.4824 99.2163 51.4824 100.131C51.4824 101.046 51.8044 101.954 52.8672 101.954Z" fill="#666666"/>
<path d="M56.8477 97.2647H58.342V98.0634H58.3742C58.7735 97.4193 59.4563 97.1101 60.1261 97.1101C61.7943 97.1101 62.2194 98.0505 62.2194 99.4675V102.984H60.6478V99.7509C60.6478 98.8105 60.3709 98.3468 59.643 98.3468C58.7864 98.3468 58.4257 98.8234 58.4257 99.9892V102.991H56.8541V97.2711L56.8477 97.2647Z" fill="#666666"/>
</svg>
