<?xml version="1.0" standalone="no"?>
<!DOCTYPE svg PUBLIC "-//W3C//DTD SVG 20010904//EN"
 "http://www.w3.org/TR/2001/REC-SVG-20010904/DTD/svg10.dtd">
<svg version="1.0" xmlns="http://www.w3.org/2000/svg"
 width="16.000000pt" height="16.000000pt" viewBox="0 0 16.000000 16.000000"
 preserveAspectRatio="xMidYMid meet">
<metadata>
Created by potrace 1.11, written by Peter Selinger 2001-2013
</metadata>
<g transform="translate(0.000000,16.000000) scale(0.006154,-0.006154)"
fill="#000000" stroke="none">
<path d="M327 2285 c-2 -5 -4 -28 -3 -50 1 -34 4 -40 24 -41 29 -2 87 -48 130
-103 l32 -43 0 -758 0 -758 -37 -49 c-47 -61 -79 -87 -117 -93 -29 -5 -31 -8
-32 -52 -1 -28 4 -49 10 -49 36 -4 886 -3 887 1 2 8 2 54 0 76 -1 18 -8 20
-67 22 -75 2 -102 18 -165 102 l-36 48 1 322 1 323 65 -1 c155 0 144 3 204
-58 30 -30 79 -94 107 -142 28 -48 62 -103 74 -122 13 -19 31 -51 42 -70 50
-97 223 -369 261 -411 86 -97 74 -93 339 -94 150 0 233 3 234 10 6 48 -3 78
-31 101 -53 45 -236 313 -500 730 l-51 82 -62 12 c-34 7 -71 14 -82 16 -11 3
-38 7 -60 10 -43 6 -66 19 -37 21 69 4 234 73 309 130 93 70 169 174 189 259
12 49 13 156 2 213 -37 205 -228 359 -498 402 -36 5 -78 12 -95 16 -57 11
-1034 9 -1038 -2z m986 -149 c143 -70 217 -205 217 -396 0 -145 -35 -237 -116
-309 -91 -79 -181 -108 -344 -107 l-115 1 -1 383 c0 371 0 383 20 412 32 44
52 50 171 47 98 -2 116 -5 168 -31z"/>
</g>
</svg>
