{"asset":{"version":"2.0","generator":"babylon.js glTF exporter for 3dsmax 2017 v20200123.4"},"scene":0,"scenes":[{"nodes":[0,1,6,7],"extensions":{}}],"nodes":[{"mesh":0,"translation":[9.806303,-3.50971651,-6.55557156],"rotation":[1.52000036E-16,0.684547246,-1.61863536E-16,0.7289685],"scale":[0.99999994,1.0,0.99999994],"name":"base"},{"children":[2,3,4,5],"mesh":1,"translation":[1.412665,-0.349870563,-8.499111],"rotation":[0.0,0.0,-2.220446E-16,1.0],"scale":[2.01076317,2.01076317,2.01076317],"name":"plate"},{"mesh":2,"translation":[-0.7025518,0.173998892,4.2268095],"rotation":[0.0,0.0,0.0,1.0],"scale":[0.497323632,0.497323632,0.497323632],"name":"defaultMat"},{"mesh":3,"translation":[-3.62195349,3.854683,0.158127308],"rotation":[2.17274989E-16,-0.9297765,8.602535E-17,-0.368124634],"scale":[11.5122681,11.5122671,11.5122681],"name":"sculpture01BLUE"},{"mesh":4,"translation":[-1.742415,17.7422447,-4.87504339],"rotation":[2.17274989E-16,-0.9297765,8.602535E-17,-0.368124634],"scale":[11.5122681,11.5122671,11.5122681],"name":"sculpture01YELLOW"},{"mesh":5,"translation":[0.8634014,22.3716545,1.509778],"rotation":[2.17274989E-16,-0.9297765,8.602535E-17,-0.368124634],"scale":[11.5122681,11.5122671,11.5122681],"name":"sculpture01RED"},{"mesh":6,"translation":[53.6620255,-2.05639362,-19.04244],"rotation":[0.0,0.0,0.0,1.0],"scale":[0.554776669,0.554776669,0.554776669],"name":"Plane001"},{"translation":[0.0,0.0,0.0],"rotation":[0.0,0.0,0.0,1.0],"scale":[1.0,1.0,1.0],"name":"Default light"}],"meshes":[{"primitives":[{"attributes":{"POSITION":1,"NORMAL":2,"TEXCOORD_0":3},"indices":0,"mode":4,"material":0}],"name":"base"},{"primitives":[{"attributes":{"POSITION":5,"NORMAL":6,"TEXCOORD_0":7},"indices":4,"mode":4,"material":1}],"name":"plate"},{"primitives":[{"attributes":{"POSITION":9,"NORMAL":10,"TEXCOORD_0":11},"indices":8,"mode":4,"material":2}],"name":"defaultMat"},{"primitives":[{"attributes":{"POSITION":13,"NORMAL":14,"TEXCOORD_0":15},"indices":12,"mode":4,"material":3}],"name":"sculpture01BLUE"},{"primitives":[{"attributes":{"POSITION":17,"NORMAL":18,"TEXCOORD_0":19},"indices":16,"mode":4,"material":4}],"name":"sculpture01YELLOW"},{"primitives":[{"attributes":{"POSITION":21,"NORMAL":22,"TEXCOORD_0":23},"indices":20,"mode":4,"material":5}],"name":"sculpture01RED"},{"primitives":[{"attributes":{"POSITION":25,"NORMAL":26,"TEXCOORD_0":27},"indices":24,"mode":4,"material":6}],"name":"Plane001"}],"accessors":[{"bufferView":0,"componentType":5123,"count":30948,"type":"SCALAR","name":"accessorIndices"},{"bufferView":1,"componentType":5126,"count":30948,"max":[16.9735165,-0.01160227,6.98943424],"min":[-13.77422,-15.3913393,-23.8316727],"type":"VEC3","name":"accessorPositions"},{"bufferView":1,"byteOffset":371376,"componentType":5126,"count":30948,"type":"VEC3","name":"accessorNormals"},{"bufferView":2,"componentType":5126,"count":30948,"type":"VEC2","name":"accessorUVs"},{"bufferView":0,"byteOffset":61896,"componentType":5123,"count":44658,"type":"SCALAR","name":"accessorIndices"},{"bufferView":1,"byteOffset":742752,"componentType":5126,"count":44658,"max":[4.18862534,0.325812817,4.26419258],"min":[-4.188625,-0.325812817,-4.26419258],"type":"VEC3","name":"accessorPositions"},{"bufferView":1,"byteOffset":1278648,"componentType":5126,"count":44658,"type":"VEC3","name":"accessorNormals"},{"bufferView":2,"byteOffset":247584,"componentType":5126,"count":44658,"type":"VEC2","name":"accessorUVs"},{"bufferView":0,"byteOffset":151212,"componentType":5123,"count":32898,"type":"SCALAR","name":"accessorIndices"},{"bufferView":1,"byteOffset":1814544,"componentType":5126,"count":32898,"max":[20.7109623,48.8201828,6.573433],"min":[-18.4156189,-0.00389793,-27.16415],"type":"VEC3","name":"accessorPositions"},{"bufferView":1,"byteOffset":2209320,"componentType":5126,"count":32898,"type":"VEC3","name":"accessorNormals"},{"bufferView":2,"byteOffset":604848,"componentType":5126,"count":32898,"type":"VEC2","name":"accessorUVs"},{"bufferView":0,"byteOffset":217008,"componentType":5123,"count":25320,"type":"SCALAR","name":"accessorIndices"},{"bufferView":1,"byteOffset":2604096,"componentType":5126,"count":25320,"max":[0.22212854,0.201199919,0.205772653],"min":[-0.199215651,-0.228243932,-0.2147157],"type":"VEC3","name":"accessorPositions"},{"bufferView":1,"byteOffset":2907936,"componentType":5126,"count":25320,"type":"VEC3","name":"accessorNormals"},{"bufferView":2,"byteOffset":868032,"componentType":5126,"count":25320,"type":"VEC2","name":"accessorUVs"},{"bufferView":0,"byteOffset":267648,"componentType":5123,"count":25320,"type":"SCALAR","name":"accessorIndices"},{"bufferView":1,"byteOffset":3211776,"componentType":5126,"count":25320,"max":[0.228241563,0.218736768,0.2036075],"min":[-0.2101236,-0.218736768,-0.224709332],"type":"VEC3","name":"accessorPositions"},{"bufferView":1,"byteOffset":3515616,"componentType":5126,"count":25320,"type":"VEC3","name":"accessorNormals"},{"bufferView":2,"byteOffset":1070592,"componentType":5126,"count":25320,"type":"VEC2","name":"accessorUVs"},{"bufferView":0,"byteOffset":318288,"componentType":5123,"count":25320,"type":"SCALAR","name":"accessorIndices"},{"bufferView":1,"byteOffset":3819456,"componentType":5126,"count":25320,"max":[0.201783776,0.208729982,0.209042817],"min":[-0.227372468,-0.230401635,-0.225134432],"type":"VEC3","name":"accessorPositions"},{"bufferView":1,"byteOffset":4123296,"componentType":5126,"count":25320,"type":"VEC3","name":"accessorNormals"},{"bufferView":2,"byteOffset":1273152,"componentType":5126,"count":25320,"type":"VEC2","name":"accessorUVs"},{"bufferView":0,"byteOffset":368928,"componentType":5125,"count":82944,"type":"SCALAR","name":"accessorIndices"},{"bufferView":1,"byteOffset":4427136,"componentType":5126,"count":82944,"max":[99.73879,2.77250671,37.2771721],"min":[-111.403358,-2.7725,-3.81469727E-06],"type":"VEC3","name":"accessorPositions"},{"bufferView":1,"byteOffset":5422464,"componentType":5126,"count":82944,"type":"VEC3","name":"accessorNormals"},{"bufferView":2,"byteOffset":1475712,"componentType":5126,"count":82944,"type":"VEC2","name":"accessorUVs"},{"bufferView":3,"componentType":5126,"count":110,"max":[120.0],"min":[0.0],"type":"SCALAR","name":"accessorAnimationInput"},{"bufferView":4,"componentType":5126,"count":110,"type":"VEC4","name":"accessorAnimationRotations"},{"bufferView":3,"byteOffset":440,"componentType":5126,"count":3601,"max":[120.0],"min":[0.0],"type":"SCALAR","name":"accessorAnimationInput"},{"bufferView":4,"byteOffset":1760,"componentType":5126,"count":3601,"type":"VEC4","name":"accessorAnimationRotations"},{"bufferView":3,"byteOffset":14844,"componentType":5126,"count":3601,"max":[120.0],"min":[0.0],"type":"SCALAR","name":"accessorAnimationInput"},{"bufferView":4,"byteOffset":59376,"componentType":5126,"count":3601,"type":"VEC4","name":"accessorAnimationRotations"},{"bufferView":3,"byteOffset":29248,"componentType":5126,"count":3601,"max":[120.0],"min":[0.0],"type":"SCALAR","name":"accessorAnimationInput"},{"bufferView":4,"byteOffset":116992,"componentType":5126,"count":3601,"type":"VEC4","name":"accessorAnimationRotations"}],"bufferViews":[{"buffer":0,"byteLength":700704,"name":"bufferViewScalar"},{"buffer":0,"byteOffset":700704,"byteLength":6417792,"byteStride":12,"name":"bufferViewFloatVec3"},{"buffer":0,"byteOffset":7118496,"byteLength":2139264,"byteStride":8,"name":"bufferViewFloatVec2"},{"buffer":0,"byteOffset":9257760,"byteLength":43652,"name":"bufferViewAnimationFloatScalar"},{"buffer":0,"byteOffset":9301412,"byteLength":174608,"name":"bufferViewAnimationFloatVec4"}],"buffers":[{"uri":"sculpture01.bin","byteLength":9476020}],"materials":[{"pbrMetallicRoughness":{"baseColorFactor":[0.5,0.5,0.5,1.0],"baseColorTexture":{"index":1,"texCoord":0},"metallicFactor":1.0,"roughnessFactor":1.0,"metallicRoughnessTexture":{"index":2,"texCoord":0}},"normalTexture":{"index":0,"texCoord":0},"emissiveFactor":[0.0,0.0,0.0],"alphaMode":"OPAQUE","name":"15 - Default"},{"pbrMetallicRoughness":{"baseColorFactor":[0.5,0.5,0.5,1.0],"baseColorTexture":{"index":4,"texCoord":0},"metallicFactor":1.0,"roughnessFactor":1.0,"metallicRoughnessTexture":{"index":5,"texCoord":0}},"normalTexture":{"index":3,"texCoord":0},"emissiveFactor":[0.0,0.0,0.0],"alphaMode":"OPAQUE","name":"Material #0"},{"pbrMetallicRoughness":{"baseColorFactor":[0.5,0.5,0.5,1.0],"baseColorTexture":{"index":7,"texCoord":0},"metallicFactor":1.0,"roughnessFactor":1.0,"metallicRoughnessTexture":{"index":8,"texCoord":0}},"normalTexture":{"index":6,"texCoord":0},"emissiveFactor":[0.0,0.0,0.0],"alphaMode":"OPAQUE","name":"sebsculpture01"},{"pbrMetallicRoughness":{"baseColorFactor":[0.0,0.09411766,1.0,1.0],"metallicFactor":1.0,"roughnessFactor":1.0,"metallicRoughnessTexture":{"index":10,"texCoord":0}},"normalTexture":{"index":9,"texCoord":0},"emissiveFactor":[0.0,0.0,0.0],"alphaMode":"OPAQUE","name":"Redballasasassdasdsad"},{"pbrMetallicRoughness":{"baseColorFactor":[0.964705944,1.0,0.0,1.0],"metallicFactor":1.0,"roughnessFactor":1.0,"metallicRoughnessTexture":{"index":10,"texCoord":0}},"normalTexture":{"index":9,"texCoord":0},"emissiveFactor":[0.0,0.0,0.0],"alphaMode":"OPAQUE","name":"Redballas"},{"pbrMetallicRoughness":{"baseColorFactor":[1.0,0.0,0.0,1.0],"metallicFactor":1.0,"roughnessFactor":1.0,"metallicRoughnessTexture":{"index":10,"texCoord":0}},"normalTexture":{"index":9,"texCoord":0},"emissiveFactor":[0.0,0.0,0.0],"alphaMode":"OPAQUE","name":"Redballasasas"},{"pbrMetallicRoughness":{"baseColorFactor":[0.5882353,0.5882353,0.5882353,1.0],"metallicFactor":0.0,"roughnessFactor":0.450053632},"emissiveFactor":[0.0,0.0,0.0],"alphaMode":"OPAQUE","name":"02 - Default"}],"textures":[{"sampler":0,"source":0,"name":"base_defaultMat_Normal.jpg"},{"sampler":0,"source":1,"name":"base_defaultMat_BaseColor.jpg"},{"sampler":0,"source":2,"name":"base_defaultMat_Roughnessbase_defaultMat_Metallic.jpg"},{"sampler":0,"source":3,"name":"BLOB_Shirt_Normal.jpg"},{"sampler":0,"source":4,"name":"BLOB_Shirt_BaseColor.jpg"},{"sampler":0,"source":5,"name":"BLOB_Shirt_RoughnessBLOB_Shirt_Metallic.jpg"},{"sampler":0,"source":6,"name":"sculpture01_optimized_defaultMat_Normal.jpg"},{"sampler":0,"source":7,"name":"sculpture01_optimized_defaultMat_BaseColor.jpg"},{"sampler":0,"source":8,"name":"sculpture01_optimized_defaultMat_Roughnesssculpture01_optimized_defaultMat_Metallic.jpg"},{"sampler":0,"source":9,"name":"ball_defaultMat_Normal.jpg"},{"sampler":0,"source":10,"name":"ball_defaultMat_Roughnessball_defaultMat_Metallic.jpg"}],"images":[{"uri":"base_defaultMat_Normal.jpg"},{"uri":"base_defaultMat_BaseColor.jpg"},{"uri":"base_defaultMat_Roughnessbase_defaultMat_Metallic.jpg"},{"uri":"BLOB_Shirt_Normal.jpg"},{"uri":"BLOB_Shirt_BaseColor.jpg"},{"uri":"BLOB_Shirt_RoughnessBLOB_Shirt_Metallic.jpg"},{"uri":"sculpture01_optimized_defaultMat_Normal.jpg"},{"uri":"sculpture01_optimized_defaultMat_BaseColor.jpg"},{"uri":"sculpture01_optimized_defaultMat_Roughnesssculpture01_optimized_defaultMat_Metallic.jpg"},{"uri":"ball_defaultMat_Normal.jpg"},{"uri":"ball_defaultMat_Roughnessball_defaultMat_Metallic.jpg"}],"samplers":[{"magFilter":9729,"minFilter":9987,"wrapS":10497,"wrapT":10497}],"animations":[{"channels":[{"sampler":0,"target":{"node":1,"path":"rotation"}},{"sampler":1,"target":{"node":3,"path":"rotation"}},{"sampler":2,"target":{"node":4,"path":"rotation"}},{"sampler":3,"target":{"node":5,"path":"rotation"}}],"samplers":[{"input":28,"interpolation":"LINEAR","output":29},{"input":30,"interpolation":"LINEAR","output":31},{"input":32,"interpolation":"LINEAR","output":33},{"input":34,"interpolation":"LINEAR","output":35}],"name":"All Animations"}]}